<svg width="117" height="121" viewBox="0 0 117 121" fill="none" xmlns="http://www.w3.org/2000/svg">
<path d="M1.14502 78.0268V42.5055C1.90189 43.3922 3.0228 43.9546 4.27642 43.9546H34.5381C36.8245 43.9546 38.6695 42.0838 38.6695 39.7866V3.71826C38.6695 2.45213 38.109 1.31552 37.223 0.550293H80.2718C79.3858 1.31552 78.8253 2.45213 78.8253 3.71826V39.7866C78.8253 42.0838 80.6703 43.9546 82.9567 43.9546H113.218C114.472 43.9546 115.593 43.3922 116.35 42.5055V78.0268C115.593 77.14 114.472 76.5776 113.218 76.5776H82.9567C80.6703 76.5776 78.8253 78.4484 78.8253 80.7456V116.814C78.8253 118.08 79.3858 119.217 80.2718 119.982H37.223C38.109 119.217 38.6695 118.08 38.6695 116.814V80.7456C38.6695 78.4484 36.8245 76.5776 34.5381 76.5776H4.27642C3.0228 76.5776 1.90188 77.14 1.14502 78.0268ZM72.1678 59.9604C72.1678 67.4545 66.1546 73.521 58.7474 73.521C51.3403 73.521 45.327 67.4545 45.327 59.9604C45.327 52.4664 51.3403 46.3999 58.7474 46.3999C66.1546 46.3999 72.1678 52.4664 72.1678 59.9604ZM58.7474 74.521C66.7163 74.521 73.1678 67.9973 73.1678 59.9604C73.1678 51.9236 66.7163 45.3999 58.7474 45.3999C50.7785 45.3999 44.327 51.9236 44.327 59.9604C44.327 67.9973 50.7785 74.521 58.7474 74.521Z" fill="#010503" stroke="#010503"/>
<path d="M9.54248 72.7883V42.7256C10.2301 43.1679 11.0497 43.4242 11.9271 43.4242H40.1321C42.5426 43.4242 44.5167 41.4897 44.5167 39.0789V6.18321C44.5167 5.31751 44.2622 4.51323 43.8243 3.83789H81.568C81.1301 4.51323 80.8756 5.31751 80.8756 6.18321V39.0789C80.8756 41.4897 82.8497 43.4242 85.2602 43.4242H113.465C114.343 43.4242 115.162 43.1679 115.85 42.7256V72.7883C115.162 72.346 114.343 72.0897 113.465 72.0897H85.2602C82.8497 72.0897 80.8756 74.0242 80.8756 76.435V109.331C80.8756 110.196 81.1301 111.001 81.568 111.676H43.8243C44.2622 111.001 44.5167 110.196 44.5167 109.331V76.435C44.5167 74.0242 42.5426 72.0897 40.1321 72.0897H11.9271C11.0497 72.0897 10.2301 72.346 9.54248 72.7883ZM74.6705 57.4782C74.6705 63.9973 69.3204 69.3019 62.6962 69.3019C56.0719 69.3019 50.7218 63.9973 50.7218 57.4782C50.7218 50.9591 56.0719 45.6544 62.6962 45.6544C69.3204 45.6544 74.6705 50.9591 74.6705 57.4782ZM62.6962 71.3019C70.4029 71.3019 76.6705 65.1238 76.6705 57.4782C76.6705 49.8326 70.4029 43.6544 62.6962 43.6544C54.9894 43.6544 48.7218 49.8326 48.7218 57.4782C48.7218 65.1238 54.9894 71.3019 62.6962 71.3019Z" fill="#313131" stroke="#010503" stroke-width="2"/>
</svg>
