<svg width="491" height="164" viewBox="0 0 491 164" fill="none" xmlns="http://www.w3.org/2000/svg">
<path d="M257.4 92.1754L257.395 92.1801L238.485 110.802L216.527 129.757C215.833 130.356 215.084 130.888 214.289 131.345L198.003 140.726L177.068 149.863L158.875 155.535L140.671 159.949L124.55 162.865C123.699 163.019 122.835 163.097 121.969 163.097H16.7861C8.77801 163.097 2.28613 156.605 2.28613 148.597V30.791C2.28613 22.7829 8.778 16.291 16.7861 16.291H476C484.008 16.291 490.5 22.7829 490.5 30.791V39.1559C490.5 47.1641 484.008 53.6559 476 53.6559H466.901H324.997C323.704 53.6559 322.415 53.8178 321.162 54.1379L303.144 58.739C301.889 59.0596 300.678 59.5363 299.542 60.158L286.016 67.5549C285.337 67.9265 284.686 68.3484 284.07 68.8173L272.925 77.2947L272.902 77.312L272.882 77.3317L257.4 92.1754Z" fill="#900429" stroke="black"/>
<path d="M0.406128 15C0.406128 6.71575 7.12186 0 15.4061 0H476C484.284 0 491 6.71573 491 15V23.3649C491 31.6492 484.284 38.3649 476 38.3649H466.833H324.518C323.27 38.3649 322.027 38.5208 320.817 38.8288L302.73 43.4346C301.517 43.7434 300.348 44.2027 299.249 44.8018L285.676 52.2043C285.018 52.5627 284.389 52.9698 283.793 53.4222L272.613 61.9016L257.088 76.7454L238.113 95.379L216.077 114.347C215.359 114.965 214.584 115.514 213.763 115.985L197.403 125.382L176.358 134.541L158.072 140.226L139.787 144.648L123.598 147.568C122.72 147.726 121.829 147.806 120.936 147.806H15.4061C7.12187 147.806 0.406128 141.09 0.406128 132.806V15Z" fill="#D30A40"/>
</svg>
