<svg width="53" height="684" viewBox="0 0 53 684" fill="none" xmlns="http://www.w3.org/2000/svg">
<rect x="1.45044" y="1.69043" width="49.9864" height="680.569" rx="24.9932" fill="#D30A40" stroke="black" stroke-width="2"/>
<path d="M51.9368 666.602C51.9368 671.188 49.1597 675.4 44.5455 678.489C39.9346 681.575 33.5361 683.5 26.4436 683.5C19.3512 683.5 12.9527 681.575 8.34178 678.489C3.72759 675.4 0.950439 671.188 0.950439 666.602C0.950439 662.017 3.72759 657.804 8.34178 654.716C12.9527 651.63 19.3512 649.705 26.4436 649.705C33.5361 649.705 39.9346 651.63 44.5455 654.716C49.1597 657.804 51.9368 662.017 51.9368 666.602Z" fill="#900429" stroke="black"/>
<path d="M0.450439 612.929C24.0693 601.204 35.1533 605.994 52.4368 612.929" stroke="black"/>
<path d="M0.450439 585.244C24.0693 573.519 35.1533 578.309 52.4368 585.244" stroke="black"/>
<path d="M0.450439 70.2799C24.0693 58.5544 35.1533 63.3448 52.4368 70.2799" stroke="black"/>
<path d="M0.450439 42.5948C24.0693 30.8694 35.1533 35.6597 52.4368 42.5948" stroke="black"/>
<rect x="13.5562" y="0.69043" width="4.80547" height="648.515" fill="#D22957"/>
</svg>
