<svg width="391" height="311" viewBox="0 0 391 311" fill="none" xmlns="http://www.w3.org/2000/svg">
<path d="M0.5 36.3838C0.5 17.8823 15.4985 2.88379 34 2.88379H352.953C371.454 2.88379 386.453 17.8823 386.453 36.3838V276.36C386.453 294.862 371.454 309.86 352.953 309.86H80.9389C73.5927 309.86 66.4502 307.445 60.611 302.988L35.9027 284.125L35.8892 284.115L12.7725 265.18C5.00434 258.817 0.5 249.305 0.5 239.264V36.3838Z" fill="#D0D0D0" stroke="black"/>
<path d="M5.63879 34C5.63879 15.4985 20.6373 0.5 39.1388 0.5H356.55C375.052 0.5 390.05 15.4985 390.05 34V272.546C390.05 291.048 375.052 306.046 356.55 306.046H85.795C78.4525 306.046 71.3133 303.634 65.4756 299.18L40.8996 280.431L40.8861 280.421L17.9198 261.621C10.1465 255.259 5.63879 245.743 5.63879 235.698V34Z" fill="#D9D9D9" stroke="black"/>
<rect x="285.19" y="263.186" width="70.9434" height="3.29069" fill="#313131" stroke="black"/>
<rect x="285.19" y="270.813" width="70.9434" height="3.29069" fill="#313131" stroke="black"/>
<rect x="285.19" y="278.441" width="70.9434" height="3.29069" fill="#313131" stroke="black"/>
<rect x="285.19" y="286.069" width="70.9434" height="3.29069" fill="#313131" stroke="black"/>
<path d="M106.901 280.087C106.901 289.386 98.7635 296.988 88.6446 296.988C78.5258 296.988 70.3879 289.386 70.3879 280.087C70.3879 270.787 78.5258 263.186 88.6446 263.186C98.7635 263.186 106.901 270.787 106.901 280.087Z" fill="#D30A40" stroke="black"/>
<path d="M180.386 21.2153C180.386 23.6691 178.23 25.7211 175.491 25.7211C172.751 25.7211 170.595 23.6691 170.595 21.2153C170.595 18.7614 172.751 16.7095 175.491 16.7095C178.23 16.7095 180.386 18.7614 180.386 21.2153Z" fill="#D30A40" stroke="black"/>
<path d="M222.525 21.2153C222.525 23.6691 220.369 25.7211 217.629 25.7211C214.889 25.7211 212.733 23.6691 212.733 21.2153C212.733 18.7614 214.889 16.7095 217.629 16.7095C220.369 16.7095 222.525 18.7614 222.525 21.2153Z" fill="#D30A40" stroke="black"/>
</svg>
